<?xml version="1.0" encoding="UTF-8" standalone="no"?>
<!-- Created with Inkscape (http://www.inkscape.org/) -->

<svg
   width="1100"
   height="514.15546"
   viewBox="0 0 314.28571 146.90156"
   version="1.1"
   id="svg1"
   xml:space="preserve"
   sodipodi:docname="BoldByteLogo.svg"
   inkscape:export-filename="BoldByteLogo.png"
   inkscape:export-xdpi="326.75204"
   inkscape:export-ydpi="326.75204"
   inkscape:version="1.4.3 (0d15f75, 2025-12-25)"
   xmlns:inkscape="http://www.inkscape.org/namespaces/inkscape"
   xmlns:sodipodi="http://sodipodi.sourceforge.net/DTD/sodipodi-0.dtd"
   xmlns="http://www.w3.org/2000/svg"
   xmlns:svg="http://www.w3.org/2000/svg"><sodipodi:namedview
     id="namedview1"
     pagecolor="#ffffff"
     bordercolor="#000000"
     borderopacity="0.25"
     inkscape:showpageshadow="2"
     inkscape:pageopacity="0.0"
     inkscape:pagecheckerboard="0"
     inkscape:deskcolor="#d1d1d1"
     showgrid="false"
     inkscape:zoom="4.2458177"
     inkscape:cx="1032.6633"
     inkscape:cy="168.51877"
     inkscape:window-width="2560"
     inkscape:window-height="1367"
     inkscape:window-x="1920"
     inkscape:window-y="0"
     inkscape:window-maximized="1"
     inkscape:current-layer="layer1" /><defs
     id="defs1" /><g
     id="layer1"
     transform="translate(-171,-129.01941)"><path
       id="path1"
       style="display:inline;fill:#000000;fill-opacity:1;stroke-width:0.887128"
       d="m 222.87729,137.30945 v 42.05058 42.05058 h 25.53255 25.53085 l 7.26504,-1.47277 7.26681,-1.4728 4.28486,-2.91784 4.28489,-2.91956 2.15544,-3.6993 2.15545,-3.69928 0.37252,-6.49411 0.37252,-6.49412 -1.25098,-4.11514 -1.25099,-4.11685 -4.42697,-3.9384 -4.42695,-3.94013 1.5802,-1.16091 1.57844,-1.16261 1.89036,-3.69931 1.88859,-3.69928 0.0192,-5.54459 0.0173,-5.5446 -1.07424,-3.43418 -1.07252,-3.43246 -2.68909,-2.83814 -2.68739,-2.83986 -3.79626,-1.72057 -3.79802,-1.72056 -6.13883,-1.0119 -6.13884,-1.01189 h -23.72188 z m 84.74814,0 v 42.05058 l 0.0174,42.05058 h 25.52217 25.5239 l 7.26506,-1.47277 7.26507,-1.4728 4.28488,-2.91784 4.28488,-2.91956 2.15544,-3.6993 2.15544,-3.69928 0.37252,-6.49411 0.37252,-6.49412 -1.25098,-4.11514 -1.24927,-4.11685 -4.42695,-3.9384 -4.42696,-3.94013 1.57847,-1.16091 1.58018,-1.16261 1.8886,-3.69931 1.89035,-3.69928 0.0174,-5.54459 0.0174,-5.5446 -1.07252,-3.43418 -1.07425,-3.43246 -2.68736,-2.83814 -2.68911,-2.83986 -3.79626,-1.72057 -3.79627,-1.72056 -6.13883,-1.0119 -6.13885,-1.01189 h -23.72193 z m -82.66202,1.86438 h 21.63579 21.64621 l 6.13883,1.01017 6.13883,1.01187 3.798,1.72057 3.79628,1.72055 2.68735,2.83989 2.68909,2.83813 1.07253,3.43418 1.07426,3.43246 0.01,3.45152 0.01,3.44978 -1.71186,3.8067 -1.7119,3.80499 -3.99206,2.57303 -3.99205,2.57305 3.09454,1.13489 3.09628,1.13665 3.59356,3.53989 3.59355,3.53987 1.20591,3.97305 1.20595,3.9748 -0.44357,4.71116 -0.44355,4.70945 -2.10174,3.61091 -2.10343,3.61092 -4.28489,2.91958 -4.28489,2.91785 -7.26506,1.47277 -7.25642,1.47279 h -23.44683 -23.44645 v -40.19659 z m 84.7464,0 h 21.63754 21.64444 l 6.14059,1.01017 6.13883,1.01187 3.79629,1.72057 3.79626,1.72055 2.68908,2.83989 2.68738,2.83813 1.07424,3.43418 1.07252,3.43246 0.01,3.45152 0.01,3.44978 -1.71187,3.8067 -1.71186,3.80499 -3.99207,2.57303 -3.99206,2.57305 3.09627,1.13489 3.09628,1.13665 3.59181,3.53989 3.59355,3.53987 1.20593,3.97305 1.20768,3.9748 -0.44356,4.71116 -0.44358,4.70945 -2.10343,3.61091 -2.10174,3.61092 -4.28489,2.91958 -4.28488,2.91785 -7.26679,1.47277 -7.25641,1.47279 h -23.44692 -23.44642 v -40.19659 z m -82.67067,1.65818 v 38.43967 38.45697 h 21.3707 21.3707 l 7.26507,-1.47276 7.26506,-1.47279 4.28489,-2.91785 4.28489,-2.91958 1.96136,-3.3701 1.95966,-3.37177 0.5683,-3.13099 0.56832,-3.13269 -1.19726,-3.94707 -1.19901,-3.94706 -3.59182,-3.53986 -3.59355,-3.53989 -3.10494,-1.14531 -3.10493,-1.14358 0.01,-1.97004 0.01,-1.96834 3.71831,-2.13813 3.71657,-2.13815 2.09305,-4.20522 2.09478,-4.20523 -0.67574,-3.98347 -0.67399,-3.98343 -2.31485,-3.05127 -2.31483,-3.05126 -3.49653,-2.09482 -3.49479,-2.09307 -3.7616,-1.06388 -3.76163,-1.06561 -23.12589,-0.41584 z m 84.74642,0 v 38.43967 38.45697 h 21.37069 21.3707 l 7.2668,-1.47276 7.26507,-1.47279 4.28488,-2.91785 4.28489,-2.91958 1.95963,-3.3701 1.96139,-3.37177 0.56657,-3.13099 0.56832,-3.13269 -1.19727,-3.94707 -1.19727,-3.94706 -3.59354,-3.53986 -3.59182,-3.53989 -3.10495,-1.14531 -3.10493,-1.14358 0.01,-1.97004 0.01,-1.96834 3.71657,-2.13813 3.71659,-2.13815 2.09479,-4.20522 2.09306,-4.20523 -0.67402,-3.98347 -0.674,-3.98343 -2.31658,-3.05127 -2.31483,-3.05126 -3.49479,-2.09482 -3.49479,-2.09307 -3.76162,-1.06388 -3.76161,-1.06561 -23.12763,-0.41584 z m -64.99924,10.35281 h 10.47745 10.47568 l 3.04258,2.69606 3.04429,2.69778 v 5.2258 5.22404 l -3.04429,2.69781 -3.04258,2.71511 h -10.47568 -10.47745 v -10.6283 z m 84.74643,0 h 10.47743 10.47741 l 3.04258,2.69606 3.04256,2.69778 v 5.2258 5.22404 l -3.04256,2.69781 -3.04258,2.71511 h -10.47741 -10.47743 v -10.6283 z m -82.66203,1.83664 v 8.783 8.76393 h 8.40171 8.39995 l 3.04256,-2.69606 3.04429,-2.6978 v -3.37875 -3.38046 l -3.04429,-2.69779 -3.04256,-2.69607 h -8.39995 z m 84.74642,0 v 8.783 8.76393 h 8.4017 8.4017 l 3.04255,-2.69606 3.04257,-2.6978 v -3.37875 -3.38046 l -3.04257,-2.69779 -3.04255,-2.69607 h -8.4017 z m -82.67067,1.87132 h 6.3173 6.31555 l 3.04257,2.69778 3.04255,2.69606 v 1.5265 1.52478 l -3.04255,2.69778 -3.04257,2.71512 h -6.31555 -6.3173 v -6.92902 z m 84.7464,0 h 6.31731 6.31557 l 3.04429,2.69778 3.04256,2.69606 v 1.5265 1.52478 l -3.04256,2.69778 -3.04429,2.71512 h -6.31557 -6.31731 v -6.92902 z m -88.90655,27.72298 h 10.65417 10.65416 l 3.62822,1.61487 3.62819,1.61487 1.29603,2.3062 1.2943,2.30621 v 4.62279 4.62108 l -1.2943,2.3062 -1.29603,2.30795 -3.62819,1.61487 -3.62822,1.63219 h -10.65416 -10.65417 v -12.47361 z m 84.74643,0 h 10.65415 10.65416 l 3.62995,1.61487 3.62819,1.61487 1.29431,2.3062 1.29603,2.30621 v 4.62279 4.62108 l -1.29603,2.3062 -1.29431,2.30795 -3.62819,1.61487 -3.62995,1.63219 H 342.1869 331.53275 v -12.47361 z m -82.66203,1.64952 v 10.80676 10.78771 l 9.80343,-0.32055 9.80169,-0.31881 2.9282,-1.94234 2.92649,-1.94408 0.95816,-2.96289 0.95815,-2.96289 -0.94776,-3.3181 -0.94951,-3.31809 -2.93687,-1.93368 -2.93686,-1.93367 -9.80169,-0.31883 z m 84.74642,0 v 10.80676 10.78771 l 9.80343,-0.32055 9.80341,-0.31881 2.92647,-1.94234 2.92822,-1.94408 0.95816,-2.96289 0.95817,-2.96289 -0.94951,-3.3181 -0.9495,-3.31809 -2.93686,-1.93368 -2.93515,-1.93367 -9.80341,-0.31883 z m -82.67935,1.83664 7.74503,0.34656 7.74501,0.34651 2.84677,1.88863 2.8485,1.89038 0.92178,2.44826 0.92351,2.4483 -1.37574,2.57306 -1.37572,2.57302 -3.63688,1.61315 -3.6542,1.63392 h -6.49401 -6.49405 v -8.88176 z m 84.74642,0 7.74502,0.34656 7.74501,0.34651 2.84677,1.88863 2.84852,1.89038 0.92177,2.44826 0.9235,2.4483 -1.37574,2.57306 -1.37401,2.57302 -3.63859,1.61315 -3.65418,1.63392 h -6.49403 -6.49404 v -8.88176 z m -138.70781,43.88931 0.23553,15.8032 0.77387,13.51524 h 13.04871 13.04177 l 2.98019,-1.37574 2.98018,-1.37577 2.94555,1.36711 2.94553,1.36534 7.4695,0.01 7.46952,0.01 2.67006,-0.90618 2.67004,-0.90444 v 0.90444 0.90618 h 7.79872 7.79699 v -1.41213 -1.41039 l 2.46732,1.43813 2.46558,1.43638 25.45459,-0.22869 v -34.6141 l -15.82964,-0.4297 v 3.28344 3.28171 h -4.96756 -4.96755 l -2.30617,1.4364 -2.30791,1.43813 v -4.67479 -4.67652 h -7.79699 -7.79874 v 4.13419 4.1342 l -2.67002,-0.90448 -2.67004,-0.90446 -7.46952,0.0174 -7.46953,0.0174 -2.599,1.1713 -2.59901,1.1713 -1.03786,-2.78616 -1.03786,-2.78442 -2.599,-1.16264 -2.60073,-1.16263 -8.57842,-0.0174 -8.57844,-0.0174 -3.80206,-0.0385 z m 107.5181,-5.4098 v 34.53072 l 1.6495,-0.0164 25.86003,-0.26682 1.81757,-0.79013 1.81929,-0.78836 v 5.18075 l 0.0434,5.19806 h 7.61159 7.6116 l 2.20047,-2.08443 2.2005,-2.08443 3.63687,-8.31342 3.63686,-8.31169 0.0624,4.39062 0.0624,4.39235 2.07573,1.84532 2.07574,1.8453 h 9.35985 9.35812 v -0.9062 -0.90445 l 2.67005,0.90445 2.67004,0.9062 h 7.23908 7.23907 l 3.44281,-1.27871 3.44108,-1.27699 0.66533,-4.95896 0.66535,-4.95893 0.01,-4.94164 0.01,-4.94162 -3.53117,-3.13963 -3.53117,-3.14134 -8.16086,0.0624 -8.16258,0.0624 -1.85396,0.64802 -1.85395,0.64627 -4.12547,-0.3448 -4.12375,-0.34653 v -2.67873 -2.67874 h -7.79872 -7.79701 v 2.76711 2.7671 h -6.33461 -6.33465 l -0.59429,2.01511 -0.5943,2.01339 -0.83342,-2.01339 -0.83341,-2.01511 h -5.06631 -5.06459 l -1.199,-2.3322 -1.19729,-2.33392 -2.35121,-0.77107 -2.3495,-0.77277 -20.01403,-0.63762 z m -16.06701,1.44161 h 5.723 5.72127 v 15.71201 15.69295 l -10.65417,-0.026 -10.65417,-0.0277 -1.81931,-0.93911 -1.81929,-0.94085 -1.56113,-2.67875 -1.56113,-2.68046 v -5.17033 -5.17206 l 1.56979,-2.69781 1.57154,-2.69606 1.99603,-0.94951 1.99603,-0.94952 h 4.74578 4.74576 v -3.23839 z m -30.15359,0.01 h 5.72299 5.72127 v 15.70333 15.73799 h -5.72127 -5.72299 l -0.0624,-3.92973 -0.0607,-3.93146 -0.85247,1.8453 -0.85075,1.84532 -2.31657,1.84532 -2.31484,1.8453 h -8.1262 -8.12619 l -2.67871,-2.24383 -2.6787,-2.24384 -0.0452,-1.45544 -0.0452,-1.45545 -1.36535,2.79481 -1.36705,2.79482 -2.79308,1.13491 -2.79478,1.13492 H 210.92856 200.06129 V 243.74094 230.025 c 1.34162,-1.08255 2.6842,-2.1639 4.02672,-3.24533 l 10.03387,0.31882 10.03386,0.31881 2.06707,2.27156 2.06707,2.27155 -0.34653,5.27776 -0.34653,5.27776 0.65667,0.58564 0.65668,0.58566 0.65669,-3.13097 0.65669,-3.13096 2.67004,-2.22825 2.67001,-2.2265 h 8.12622 8.1262 l 2.31485,1.84532 2.31658,1.84532 0.85071,1.8453 0.85249,1.84532 0.0608,-7.15945 z m 48.25994,0.88714 h 10.32669 10.2903 l 2.67871,0.90618 2.6787,0.90446 1.17129,2.28889 1.17127,2.28888 5.18067,0.2755 5.18066,0.27375 1.80198,4.09955 1.80024,4.09779 1.53513,-4.09779 1.53342,-4.09955 6.41432,-0.27375 6.41435,-0.27571 v -2.73245 -2.73245 h 5.72125 5.723 v 2.7671 2.76884 h 3.63686 3.63686 l 0.0624,3.46884 0.0624,3.46885 0.85074,-1.84532 0.85249,-1.84532 2.28017,-1.81932 2.28019,-1.81759 7.18537,-0.36386 7.18537,-0.36386 3.65419,3.24705 3.65592,3.24705 -0.01,3.09459 -0.01,3.09631 -0.66535,4.95894 -0.66535,4.95896 -3.69923,1.37574 -3.69923,1.37576 -6.4767,-0.36387 -6.47672,-0.36385 -2.26113,-1.81067 -2.26285,-1.80891 -0.85076,-1.84532 -0.85245,-1.84532 -0.0624,3.92974 -0.0624,3.92974 h -7.27373 -7.27373 l -2.07574,-1.84532 -2.07746,-1.8453 v -6.0055 -6.00548 h -1.48144 -1.48143 l -4.31087,9.93521 -4.31086,9.93697 -2.18317,2.07574 -2.16409,2.05844 h -5.53586 -5.53588 v -4.1619 -4.16019 h 2.01337 2.01506 l 0.49556,-0.71907 0.49727,-0.71734 -3.65419,-7.36391 -3.65593,-7.36392 -0.42622,-0.38117 -0.4245,-0.3812 -0.7104,0.6307 -0.70866,0.62895 1.23192,1.0916 1.23366,1.09158 v 3.89337 3.89505 l -0.64801,1.49879 -0.64802,1.5005 -2.94379,1.34803 -2.94555,1.34804 h -10.96557 -10.96432 v -15.24938 z m -46.16515,0.95815 v 13.85804 13.8563 h 3.63688 3.63687 V 241.7362 227.87815 h -3.63687 z m 30.13453,0 v 4.67653 4.67481 l -2.30618,-1.43814 -2.30618,-1.4364 h -2.43959 -2.4396 l -1.99602,0.94951 -1.99603,0.94951 -1.56979,2.69606 -1.57154,2.69781 v 3.32673 3.32678 l 1.56113,2.67872 1.56286,2.67873 1.81758,0.94087 1.81929,0.94083 2.62499,0.026 2.62672,0.026 2.30618,-1.43641 2.30618,-1.43814 v 1.43814 1.43641 h 3.63685 3.63861 v -13.8563 -13.85805 h -3.63861 z m -88.35728,0.74488 v 13.48548 13.50282 h 8.88857 8.88857 l 2.94553,-1.34974 2.94553,-1.34804 0.64802,-1.49878 0.64801,-1.50049 v -1.94235 -1.94235 l -2.25418,-2.12947 -2.25247,-2.12948 1.72921,-1.70322 1.73092,-1.70322 v -2.36858 -2.36861 l -1.98737,-2.18144 -1.98737,-2.18319 -9.9715,-0.31881 z m 106.46364,0 v 13.48548 13.50282 h 8.88858 8.8903 l 2.9438,-1.34974 2.94552,-1.34804 0.64802,-1.49878 0.64803,-1.50049 v -1.94235 -1.94235 l -2.2542,-2.12947 -2.25247,-2.12948 1.7292,-1.70322 1.73093,-1.70322 v -2.36858 -2.36861 l -1.98735,-2.18144 -1.98737,-2.18319 -9.9715,-0.31881 z m 58.22276,1.11931 v 2.7671 2.76709 h -1.56113 -1.56286 v 2.30793 2.30621 h 1.56286 1.56113 v 6.0055 6.00549 l 2.07574,1.84532 2.07571,1.86435 h 5.19802 5.198 v -2.2542 -2.25251 l -3.3787,-0.29282 -3.38044,-0.29283 -0.31015,-5.31414 -0.31014,-5.31416 h 3.69057 3.68886 v -2.30621 -2.30793 h -3.63687 -3.63688 v -2.76709 -2.7671 h -3.63687 z m -156.37481,3.5572 3.38043,0.29281 3.38042,0.29283 v 2.76711 2.76882 l -3.38042,0.29109 -3.38043,0.29283 v -3.35274 z m 106.46539,0 3.37869,0.29281 3.38041,0.29283 v 2.76711 2.76882 l -3.38041,0.29109 -3.37869,0.29283 v -3.35274 z m 85.2073,0.79876 -5.2604,0.45224 -5.26036,0.45221 -2.76879,2.45697 -2.76707,2.45694 v 4.96761 4.96936 l 2.07571,2.05669 2.07577,2.05843 2.07571,0.75545 2.07573,0.73466 3.41509,0.0624 3.41682,0.0624 3.60049,-1.33935 3.60221,-1.33937 v -2.37724 -2.37725 l -3.06855,1.4104 -3.07029,1.41041 h -3.09628 -3.09626 l -1.63218,-1.45545 -1.63217,-1.45548 v -0.8594 -0.86114 h 8.32199 8.32027 v -2.86587 -2.86413 l -3.66286,-3.25572 z m -164.57899,0.69135 -2.88316,2.56438 -2.88315,2.56263 v 4.96761 4.96936 l 2.07573,2.05669 2.07573,2.05843 2.07573,0.80743 2.09306,0.7901 5.03167,-0.32919 5.02993,-0.32748 2.76707,-2.45696 2.76705,-2.45695 v -5.04038 -5.03866 l -2.88315,-2.56263 -2.88315,-2.56438 h -6.19081 z m 98.081,0.36387 0.93043,2.13813 0.93218,2.13814 4.30222,8.64956 4.30221,8.64958 -1.19728,1.28565 -1.19727,1.28565 h -1.9527 -1.951 v 2.30795 l -0.0537,2.30621 h 3.46012 3.46013 l 2.20049,-2.07577 2.19875,-2.07577 3.80667,-8.78297 3.80492,-8.783 1.43812,-3.52255 1.43638,-3.52081 -3.77893,0.28415 -3.77895,0.28242 -1.91632,5.08371 -1.91634,5.08372 -0.60298,1.3844 -0.60297,1.38268 -2.90048,-6.46639 -2.90219,-6.46812 -3.75989,-0.28242 z m 63.45541,3.60224 1.54381,1.14358 1.54381,1.14357 v 0.80744 0.80744 h -4.64875 -4.64874 l 0.60298,-1.39309 0.60297,-1.39135 2.50195,-0.55967 z m -157.29658,0.19405 h 1.93365 1.93538 l 1.63217,1.45548 1.63219,1.45546 v 3.10497 3.10496 l -1.63219,1.45374 -1.63217,1.45546 h -1.93538 -1.93365 l -1.63217,-1.45546 -1.63218,-1.45374 v -3.10496 -3.10497 l 1.63218,-1.45546 z m 41.51813,0.0277 h 2.52796 2.52796 l 1.07424,1.78294 1.07253,1.78293 v 2.43096 2.43096 l -1.07253,1.78294 -1.07424,1.78293 h -2.52796 -2.52796 l -1.07426,-1.78293 -1.07252,-1.78294 v -2.43096 -2.43096 l 1.07252,-1.78293 z m 92.87262,2.7671 v 3.07899 3.07725 l 0.69308,0.61337 0.69998,0.62897 h 2.94553 2.93687 v -3.6993 -3.69928 h -3.63861 z m 2.07573,1.84531 h 1.56112 1.56115 v 1.84531 1.84532 h -0.86807 -0.8698 l -0.69134,-0.61165 -0.69306,-0.61337 v -1.23193 z m -167.78962,0.79011 3.27302,0.29283 3.273,0.29282 1.0829,1.54209 1.08119,1.54383 -1.36534,1.46411 -1.36707,1.4468 h -2.98886 -2.98884 v -3.29211 z m 106.46365,0 3.27299,0.29283 3.27301,0.29282 1.08293,1.54209 1.08292,1.54383 -1.36708,1.46411 -1.36534,1.4468 h -2.99059 -2.98884 v -3.29211 z m 83.29098,3.63691 -1.36536,0.48689 -1.36705,0.48862 1.99602,0.0711 1.99604,0.0711 -0.62896,-0.55966 z m -62.27547,4.80821 h 0.30148 0.30149 l 0.59429,1.38442 0.59431,1.38268 h -1.49009 -1.49011 l 0.59432,-1.38268 z"
       inkscape:label="path1"
       sodipodi:nodetypes="ccccccccccccccccccccccccccccccccccccccccccccccccccccccccccccccccccccccccccccccccccccccccccccccccccccccccccccccccccccccccccccccccccccccccccccccccccccccccccccccccccccccccccccccccccccccccccccccccccccccccccccccccccccccccccccccccccccccccccccccccccccccccccccccccccccccccccccccccccccccccccccccccccccccccccccccccccccccccccccccccccccccccccccccccccccccccccccccccccccccccccccccccccccccccccccccccccccccccccccccccccccccccccccccccccccccccccccccccccccccccccccccccccccccccccccccccccccccccccccccccccccccccccccccccccccccccccccccccccccccccccccccccccccccccccccccccccccccccccccccccccccccccccccccccccccccccccccccccccccccccccccccccccccccccccccccccccccccccccccccccccccccccccccccccccccccccccccccccccccccccccccccccccccccccccccccccccccccccccccccccccccccccccccccccccccccccccccccccccccccccccccccccccccccccccccccccccccccccccccccccccccccccccccccccccccccccccccccccccccccccccccccccccccccccccccccccccccccccccccccccccccccccccccccccccccccccccccccccccccccccccccccccccccccccccccccccccccccccccc" /><path
       d="m 452.8669,149.73736 -5.15141,6.01192 v 4.00795 l -3.87532,2.1544 v 5.06734 l 4.3055,2.69945 h 5.00268 l 10.10238,-9.95323 v -1.29229 l 1.93766,-0.54911 v -2.15039 l -4.37191,0.56285 -3.94164,-6.04427 z m 1.92958,2.23687 0.79415,1.98617 4.58861,4.75358 -2.61699,2.30318 -1.5899,-0.0663 -5.33259,-2.56848 v -3.12969 z m -1.98777,9.77889 2.05408,1.82279 -3.57771,3.49365 -2.12039,-0.0321 -2.61699,-1.47508 0.69553,-3.24615 z"
       style="display:inline;fill:#000000;fill-opacity:1;stroke-width:0.828112"
       id="path1-20"
       inkscape:label="Butterfly"
       sodipodi:nodetypes="ccccccccccccccccccccccccccccc" /><path
       d="m 462.40363,191.17203 -6.01227,5.15123 h -4.00782 l -2.15457,3.875 H 445.162 l -2.69976,-4.30525 v -5.00279 l 9.95312,-10.10212 h 1.2924 l 4.41406,-1.20879 v 2.15039 l -2.27734,1.49255 6.04408,3.9414 z m -2.23715,-1.92969 -1.98606,-0.79408 -4.75335,-4.58873 -2.30357,2.61719 0.0664,1.58984 2.56863,5.33258 h 3.12947 z m -9.77903,1.98773 -1.82254,-2.05413 -3.49386,3.57756 0.0324,2.12054 1.47488,2.61719 3.2461,-0.69587 z"
       style="display:inline;stroke-width:0.828112"
       id="path3"
       sodipodi:nodetypes="ccccccccccccccccccccccccccccc" /></g></svg>
