<?xml version="1.0" encoding="UTF-8" standalone="no"?>
<!-- Created with Inkscape (http://www.inkscape.org/) -->

<svg
   width="253.125"
   height="146.87589"
   viewBox="0 0 253.125 146.87589"
   version="1.1"
   id="svg1"
   xml:space="preserve"
   xmlns="http://www.w3.org/2000/svg"
   xmlns:svg="http://www.w3.org/2000/svg"><defs
     id="defs1" /><g
     id="layer1"
     transform="translate(-173,-129.02527)"><path
       style="display:inline;fill:#ffffff;fill-opacity:1"
       d="m 338.23437,270.05965 v -5.84061 l -2.05078,0.8927 -2.05078,0.89269 -29.14882,0.29582 -29.14882,0.29582 -2.78477,-1.62192 -2.78478,-1.62191 v 1.58651 1.58652 h -8.78906 -8.78906 v -1.01589 -1.01588 l -3.00598,1.01588 -3.00597,1.01589 -8.41981,-0.006 -8.4198,-0.006 -3.31879,-1.53864 -3.3188,-1.53864 -3.36129,1.54506 -3.36129,1.54506 H 201.76913 187.0625 v -15.3125 -15.3125 l -1.40625,1.25 -1.40625,1.25 h -3.0205 -3.0205 L 175.6045,236.77954 173,235.15797 v -3.0571 -3.05711 l 2.34375,-1.30106 2.34375,-1.30107 v -2.4231 -2.42309 l 3.11265,-3.62747 3.11266,-3.62747 2.42207,0.31155 2.42208,0.31156 2.37543,3.65006 2.37542,3.65006 2.63672,-0.3371 2.63672,-0.33709 v 1.63495 1.63495 h -1.17188 -1.17187 v 1.5625 1.5625 l 9.66797,0.0154 9.66797,0.0153 2.92968,1.31389 2.92969,1.31388 1.17188,3.13565 1.17187,3.13564 2.92969,-1.32453 2.92969,-1.32453 8.4198,-0.0153 8.41981,-0.0154 3.00597,1.01588 3.00598,1.01589 v -4.66172 -4.66172 h 8.78906 8.78906 v 5.2674 5.2674 l 2.6045,-1.62156 2.6045,-1.62157 h 5.59863 5.59862 v -3.69586 -3.69586 l 22.5586,0.71849 22.55859,0.7185 2.65112,0.87312 2.65113,0.87311 1.34557,2.62508 1.34558,2.62509 h 5.70903 5.70904 l 0.94341,2.26693 0.94342,2.26694 0.66692,-2.26694 0.66692,-2.26693 h 7.14096 7.14096 v -3.125 -3.125 h 8.78907 8.78906 v 3.01558 3.01559 l 4.65246,0.39439 4.65246,0.39438 2.08582,-0.73259 2.08582,-0.73259 9.19922,-0.0732 9.19922,-0.0732 3.98437,3.54167 3.98438,3.54166 -0.0102,5.57292 -0.0102,5.57292 -0.75493,5.58845 -0.75494,5.58845 -3.88474,1.4428 -3.88474,1.4428 h -8.16448 -8.16447 l -3.00598,-1.01589 -3.00598,-1.01588 v 1.01588 1.01589 h -10.54687 -10.54688 l -2.34375,-2.08334 -2.34375,-2.08333 -0.0729,-4.94792 -0.0729,-4.94791 -4.0982,9.37367 -4.0982,9.37368 -2.47847,2.34507 -2.47847,2.34508 h -8.58479 -8.58479 z m 17.29005,1.41353 2.46421,-2.34375 4.85811,-11.19791 4.8581,-11.19792 h 1.67102 1.67101 v 6.77083 6.77084 l 2.34375,2.08333 2.34375,2.08333 h 8.20313 8.20312 l 0.0743,-4.42708 0.0743,-4.42708 0.95927,2.08333 0.95928,2.08333 2.5484,2.03772 2.54839,2.03772 7.3,0.41318 7.29999,0.41318 4.17325,-1.54995 4.17324,-1.54995 0.75494,-5.58845 0.75493,-5.58845 0.0102,-3.48958 0.0102,-3.48958 -4.11581,-3.6585 -4.11581,-3.6585 -8.1028,0.40697 -8.1028,0.40698 -2.56814,2.05361 -2.56815,2.0536 -0.95928,2.08334 -0.95927,2.08333 -0.0743,-3.90625 -0.0743,-3.90625 h -4.10156 -4.10156 v -3.125 -3.125 h -6.44531 -6.44532 v 3.07529 3.0753 l -7.2312,0.31012 -7.23121,0.31012 -1.72816,4.6208 -1.72815,4.6208 -2.02666,-4.6208 -2.02666,-4.6208 -5.8434,-0.30983 -5.84339,-0.30984 -1.32024,-2.57566 -1.32024,-2.57566 -3.02038,-1.02076 -3.02038,-1.02075 H 317.06437 305.4219 v 17.1875 17.1875 h 12.36289 12.36288 l 3.31542,-1.52397 3.31542,-1.52397 0.72795,-1.68623 0.72794,-1.68622 v -4.39397 -4.39397 l -1.38671,-1.23264 -1.38672,-1.23264 0.80078,-0.7118 0.80078,-0.71181 0.48166,0.43403 0.48166,0.43403 4.11529,8.30263 4.11528,8.30263 -0.56454,0.81195 -0.56455,0.81195 h -2.27459 -2.27459 v 4.6875 4.6875 h 6.24104 6.24104 z m -12.60255,-2.34375 v -2.60416 h 2.20027 2.20026 l 1.34996,-1.44588 1.34997,-1.44588 -4.84556,-9.75204 -4.84555,-9.75204 -1.04627,-2.40651 -1.04626,-2.40652 4.23929,0.32318 4.23929,0.32319 3.27191,7.29166 3.2719,7.29167 0.68185,-1.5625 0.68185,-1.5625 2.16338,-5.72917 2.16337,-5.72916 4.26226,-0.32184 4.26225,-0.32183 -1.61543,3.96767 -1.61543,3.96766 -4.28884,9.89584 -4.28884,9.89583 -2.47552,2.34375 -2.47553,2.34375 h -3.89729 -3.89729 z m -35.15625,-21.97555 v -15.20472 l 11.23766,0.36097 11.23765,0.36097 2.23891,2.45915 2.23891,2.45915 v 2.66716 2.66716 l -1.95055,1.91586 -1.95055,1.91585 2.53649,2.39997 2.53648,2.39997 v 2.19142 2.19142 l -0.72794,1.68622 -0.72795,1.68622 -3.31542,1.52398 -3.31542,1.52397 h -10.01913 -10.01914 z m 17.65965,8.34657 1.54038,-1.64981 -1.2221,-1.73561 -1.2221,-1.7356 -3.69041,-0.32641 -3.69042,-0.32642 v 3.71183 3.71184 h 3.37214 3.37214 z m -0.66746,-14.49602 v -3.125 l -3.80859,-0.32641 -3.8086,-0.32642 v 3.77783 3.77783 l 3.8086,-0.32641 3.80859,-0.32642 z m 50.97656,19.27084 -2.34375,-2.08334 v -6.77083 -6.77083 h -1.75781 -1.75781 v -2.60417 -2.60417 h 1.75781 1.75781 v -3.125 -3.125 h 4.10157 4.10156 v 3.125 3.125 h 4.10156 4.10156 v 2.60417 2.60417 h -4.16004 -4.16004 l 0.35145,5.98958 0.35145,5.98958 3.80859,0.32642 3.80859,0.32641 v 2.53817 2.53817 h -5.85937 -5.85938 z m 26.36719,1.09858 -2.34375,-0.85269 -2.34375,-2.31564 -2.34375,-2.31564 v -5.59614 -5.59613 l 3.11832,-2.77183 3.11832,-2.77184 5.9346,-0.50688 5.9346,-0.50688 4.13068,3.67171 4.13067,3.67171 v 3.22917 3.22916 h -9.375 -9.375 v 0.96726 0.96727 l 1.84152,1.6369 1.84152,1.63691 h 3.49011 3.49012 l 3.45743,-1.58925 3.45742,-1.58925 v 2.68407 2.68406 l -4.06392,1.50935 -4.06392,1.50935 -3.84623,-0.066 -3.84624,-0.066 z m 11.13281,-14.5127 v -0.91412 l -1.74259,-1.28554 -1.74259,-1.28553 -2.81565,0.62816 -2.81565,0.62816 -0.67841,1.57149 -0.67842,1.5715 h 5.23666 5.23665 z m -28.51562,7.51134 -0.78125,-0.69445 v -3.47222 -3.47222 h 4.10156 4.10156 v 4.16667 4.16666 H 388.82031 385.5 Z m 5.07812,-3.47222 v -2.08334 h -1.75781 -1.75781 v 1.38889 1.38889 l 0.78125,0.69444 0.78125,0.69445 h 0.97656 0.97656 z m 19.70215,3.45509 1.53809,-0.54711 0.70801,0.62934 0.708,0.62934 -2.24609,-0.0822 -2.24609,-0.0822 z m -192.44104,8.80974 3.15264,-1.27684 1.54413,-3.15025 1.54414,-3.15024 0.0459,1.64134 0.0459,1.64134 3.0241,2.52532 3.0241,2.52533 h 9.15756 9.15756 l 2.60509,-2.08333 2.6051,-2.08334 0.95928,-2.08333 0.95928,-2.08333 0.0743,4.42708 0.0743,4.42708 h 6.44531 6.44531 V 246.7336 229.02527 h -6.44531 -6.44531 l -0.0743,8.07291 -0.0743,8.07292 -0.95928,-2.08333 -0.95928,-2.08334 -2.6051,-2.08333 -2.60509,-2.08333 h -9.15756 -9.15756 l -3.00616,2.51034 -3.00615,2.51035 -0.74455,3.52781 -0.74455,3.5278 -0.73692,-0.65503 -0.73691,-0.65504 0.38533,-5.94613 0.38533,-5.94613 -2.33259,-2.56199 -2.33259,-2.56198 -11.31061,-0.36318 -11.3106,-0.36318 -2.2708,1.82671 -2.2708,1.8267 v 15.46356 15.46355 h 12.24955 12.24954 z M 191.75,247.15388 v -15.20472 l 11.23765,0.36097 11.23766,0.36097 2.23891,2.45915 2.2389,2.45915 v 2.66716 2.66716 l -1.95055,1.91586 -1.95055,1.91585 2.53649,2.39997 2.53649,2.39997 v 2.19142 2.19142 l -0.72795,1.68622 -0.72794,1.68622 -3.31542,1.52398 -3.31542,1.52397 H 201.76913 191.75 Z m 17.65965,8.34657 1.54038,-1.64981 -1.22211,-1.73561 -1.2221,-1.7356 -3.69041,-0.32641 -3.69041,-0.32642 v 3.71183 3.71184 h 3.37214 3.37213 z m -0.66746,-14.49602 v -3.125 l -3.8086,-0.32641 -3.80859,-0.32642 v 3.77783 3.77783 l 3.80859,-0.32641 3.8086,-0.32642 z m 23.4375,20.42605 -2.34375,-0.90932 -2.34375,-2.31564 -2.34375,-2.31564 v -5.59614 -5.59613 l 3.24929,-2.88825 3.24929,-2.88826 h 6.97798 6.97798 l 3.24929,2.88826 3.24929,2.88825 v 5.68182 5.68182 l -3.11832,2.77184 -3.11831,2.77184 -5.67075,0.36743 -5.67074,0.36744 z m 10.46317,-5.91712 1.84151,-1.6369 v -3.49703 -3.49702 l -1.84151,-1.63691 -1.84152,-1.6369 h -2.17634 -2.17634 l -1.84152,1.6369 -1.84152,1.63691 v 3.49702 3.49703 l 1.84152,1.6369 1.84152,1.63691 h 2.17634 2.17634 z M 257.375,246.7336 v -15.625 h 4.10156 4.10156 v 15.625 15.625 h -4.10156 -4.10156 z m 44.53125,0 v -17.70833 h -6.44531 -6.44532 v 3.64583 3.64583 h -5.35047 -5.35048 l -2.25458,1.07255 -2.25458,1.07255 -1.76994,3.04239 -1.76995,3.04239 v 5.83262 5.83263 l 1.75779,3.0215 1.75779,3.02149 2.05081,1.06177 2.0508,1.06176 12.01172,0.0317 12.01172,0.0317 z m -23.73049,14.49988 -2.05081,-1.06176 -1.75779,-3.0215 -1.75779,-3.0215 v -3.74929 -3.74929 l 1.76995,-3.04239 1.76994,-3.04239 2.25458,-1.07255 2.25458,-1.07254 h 2.74598 2.74598 l 2.6045,1.62156 2.60449,1.62157 v -5.2674 -5.2674 h 4.10157 4.10156 v 15.625 15.625 h -4.10156 -4.10157 v -1.62157 -1.62156 l -2.60449,1.62156 -2.6045,1.62157 -2.96191,-0.0317 -2.96191,-0.0317 z m 11.97051,-6.09807 1.2131,-2.01485 v -2.74113 -2.74113 l -1.2131,-2.01485 -1.21311,-2.01485 h -2.84722 -2.84723 l -1.2131,2.01485 -1.21311,2.01485 v 2.74113 2.74113 l 1.21311,2.01485 1.2131,2.01486 h 2.84723 2.84722 z m 52.02751,5.66069 -0.67454,-1.5625 h -0.33518 -0.33518 l -0.67454,1.5625 -0.67453,1.5625 h 1.68425 1.68426 z m -158.01591,-27.62878 2.14613,-2.10795 -1.2358,-1.09849 -1.2358,-1.09848 -3.3554,0.34185 -3.3554,0.34185 -0.41829,1.95851 -0.41829,1.95852 1.58014,0.89012 1.58015,0.89011 1.28322,0.016 1.28322,0.016 z m 6.99108,-6.58398 1.57528,-1.40025 -2.77058,-2.86607 -2.77058,-2.86607 -0.47501,-1.20242 -0.47501,-1.20243 -2.51496,1.98436 -2.51497,1.98436 v 1.88862 1.88862 l 3.22266,1.55407 3.22266,1.55406 0.96261,0.0417 0.96261,0.0417 z M 201.125,176.4211 v -47.39583 h 26.7379 26.7379 l 6.91633,1.13649 6.91633,1.13649 4.2843,1.94283 4.28429,1.94283 3.03207,3.20303 3.03206,3.20302 1.21038,3.8739 1.21037,3.87391 -0.0192,6.25 -0.0192,6.25 -2.1323,4.16666 -2.1323,4.16667 -1.78085,1.30962 -1.78085,1.30962 4.99212,4.43745 4.99213,4.43745 1.4055,4.63967 1.4055,4.63967 -0.42391,7.32159 -0.42391,7.3216 -2.431,4.16666 -2.431,4.16667 -4.8316,3.29269 -4.8316,3.29269 -8.18716,1.65523 -8.18716,1.65522 H 229.89757 201.125 Z m 63.38855,43.65727 8.18716,-1.65522 4.8316,-3.29269 4.8316,-3.29269 2.36607,-4.07274 2.36607,-4.07274 0.49543,-5.31044 0.49543,-5.31043 -1.35651,-4.47795 -1.35651,-4.47794 -4.05116,-3.98592 -4.05116,-3.98591 -3.48997,-1.28497 -3.48997,-1.28497 4.49946,-2.89724 4.49947,-2.89724 1.93284,-4.29392 1.93285,-4.29392 -0.007,-3.88517 -0.007,-3.88517 -1.21037,-3.8739 -1.21038,-3.8739 -3.03206,-3.20303 -3.03207,-3.20302 -4.28429,-1.94284 -4.2843,-1.94283 -6.91633,-1.13649 -6.91633,-1.13649 H 227.8629 203.46875 v 45.3125 45.3125 h 26.42882 26.42882 z M 205.8125,176.32065 v -43.32962 l 26.07422,0.47342 26.07422,0.47342 4.23941,1.20042 4.23941,1.20042 3.93583,2.35765 3.93582,2.35765 2.60568,3.43694 2.60568,3.43695 0.75812,4.49379 0.75812,4.4938 -2.35749,4.73732 -2.35749,4.73733 -4.18657,2.41131 -4.18657,2.41132 -0.0145,2.21737 -0.0145,2.21738 3.50298,1.28975 3.50297,1.28976 4.05116,3.98592 4.05116,3.98591 1.34759,4.44849 1.34759,4.44849 -0.64367,3.52575 -0.64367,3.52576 -2.20891,3.80354 -2.20891,3.80354 -4.8316,3.29269 -4.8316,3.29269 -8.18716,1.65523 -8.18716,1.65523 h -24.08507 -24.08507 z m 50.37432,30.04675 4.08526,-1.8213 1.46387,-2.60417 1.46387,-2.60416 v -5.20834 -5.20833 l -1.46387,-2.60417 -1.46387,-2.60416 -4.08526,-1.8213 -4.08526,-1.8213 -12.01172,-0.002 -12.01172,-0.002 v 14.0625 14.0625 l 12.01172,-0.002 12.01172,-0.002 z m -25.76495,-12.23797 v -12.18027 l 11.04969,0.36097 11.04969,0.36097 3.30578,2.18315 3.30578,2.18315 1.0685,3.74425 1.06849,3.74424 -1.07815,3.3416 -1.07815,3.34159 -3.29613,2.18934 -3.29612,2.18935 -11.04969,0.36096 -11.04969,0.36097 z m 21.09241,8.0713 4.10022,-1.8213 1.55001,-2.90146 1.55002,-2.90146 -1.03662,-2.76432 -1.03662,-2.76433 -3.20823,-2.12914 -3.20822,-2.12914 -8.72961,-0.39184 -8.72961,-0.39185 v 10.00969 10.00969 l 7.32422,-0.002 7.32422,-0.002 z m 3.60711,-36.637 3.42548,-3.04487 v -5.88943 -5.88942 l -3.42548,-3.04487 -3.42548,-3.04487 h -11.80889 -11.8089 v 11.97916 11.97917 h 11.8089 11.80889 z m -24.69952,-8.9343 v -9.89583 h 9.46515 9.46514 l 3.42548,3.04487 3.42548,3.04487 v 3.80609 3.80609 l -3.42548,3.04487 -3.42548,3.04488 h -9.46514 -9.46515 z m 20.01202,4.76763 3.42548,-3.04487 v -1.72276 -1.72275 l -3.42548,-3.04488 -3.42548,-3.04487 h -7.12139 -7.1214 v 7.8125 7.8125 h 7.1214 7.12139 z m 70.22236,15.02404 v -47.39583 h 26.7379 26.7379 l 6.91633,1.13649 6.91633,1.13649 4.2843,1.94283 4.28429,1.94283 3.03207,3.20303 3.03206,3.20302 1.21038,3.8739 1.21037,3.87391 -0.0192,6.25 -0.0192,6.25 -2.1323,4.16666 -2.1323,4.16667 -1.78085,1.30962 -1.78085,1.30962 4.99212,4.43745 4.99213,4.43745 1.4055,4.63967 1.4055,4.63967 -0.42391,7.32159 -0.42391,7.3216 -2.431,4.16666 -2.431,4.16667 -4.8316,3.29269 -4.8316,3.29269 -8.18716,1.65523 -8.18716,1.65522 h -28.77257 -28.77257 z m 63.38855,43.65727 8.18716,-1.65522 4.8316,-3.29269 4.8316,-3.29269 2.36607,-4.07274 2.36607,-4.07274 0.49543,-5.31044 0.49543,-5.31043 -1.35651,-4.47795 -1.35651,-4.47794 -4.05116,-3.98592 -4.05116,-3.98591 -3.48997,-1.28497 -3.48997,-1.28497 4.49946,-2.89724 4.49947,-2.89724 1.93284,-4.29392 1.93285,-4.29392 -0.007,-3.88517 -0.007,-3.88517 -1.21037,-3.8739 -1.21038,-3.8739 -3.03206,-3.20303 -3.03207,-3.20302 -4.28429,-1.94284 -4.2843,-1.94283 -6.91633,-1.13649 -6.91633,-1.13649 H 347.39415 323 v 45.3125 45.3125 h 26.42882 26.42882 z m -58.70105,-43.75772 v -43.32962 l 26.07422,0.47342 26.07422,0.47342 4.23941,1.20042 4.23941,1.20042 3.93583,2.35765 3.93582,2.35765 2.60568,3.43694 2.60568,3.43695 0.75812,4.49379 0.75812,4.4938 -2.35749,4.73732 -2.35749,4.73733 -4.18657,2.41131 -4.18657,2.41132 -0.0145,2.21737 -0.0145,2.21738 3.50298,1.28975 3.50297,1.28976 4.05116,3.98592 4.05116,3.98591 1.34759,4.44849 1.34759,4.44849 -0.64367,3.52575 -0.64367,3.52576 -2.20891,3.80354 -2.20891,3.80354 -4.8316,3.29269 -4.8316,3.29269 -8.18716,1.65523 -8.18716,1.65523 h -24.08509 -24.08507 z m 50.37432,30.04675 4.08526,-1.8213 1.46387,-2.60417 1.46387,-2.60416 v -5.20834 -5.20833 l -1.46387,-2.60417 -1.46387,-2.60416 -4.08526,-1.8213 -4.08526,-1.8213 -12.01172,-0.002 -12.01172,-0.002 v 14.0625 14.0625 l 12.01172,-0.002 12.01172,-0.002 z m -25.76495,-12.23797 v -12.18027 l 11.04969,0.36097 11.04969,0.36097 3.30578,2.18315 3.30578,2.18315 1.0685,3.74425 1.06849,3.74424 -1.07815,3.3416 -1.07815,3.34159 -3.29613,2.18934 -3.29612,2.18935 -11.04969,0.36096 -11.04969,0.36097 z m 21.09241,8.0713 4.10022,-1.8213 1.55001,-2.90146 1.55002,-2.90146 -1.03662,-2.76432 -1.03662,-2.76433 -3.20823,-2.12914 -3.20822,-2.12914 -8.72961,-0.39184 -8.72961,-0.39185 v 10.00969 10.00969 l 7.32422,-0.002 7.32422,-0.002 z m 3.60711,-36.637 3.42548,-3.04487 v -5.88943 -5.88942 l -3.42548,-3.04487 -3.42548,-3.04487 h -11.80889 -11.8089 v 11.97916 11.97917 h 11.8089 11.80889 z m -24.69952,-8.9343 v -9.89583 h 9.46515 9.46514 l 3.42548,3.04487 3.42548,3.04487 v 3.80609 3.80609 l -3.42548,3.04487 -3.42548,3.04488 h -9.46514 -9.46515 z m 20.01202,4.76763 3.42548,-3.04487 v -1.72276 -1.72275 l -3.42548,-3.04488 -3.42548,-3.04487 h -7.12139 -7.1214 v 7.8125 7.8125 h 7.1214 7.12139 z"
       id="path4" /></g></svg>
