<?xml version="1.0" encoding="UTF-8" standalone="no"?>
<!-- Created with Inkscape (http://www.inkscape.org/) -->

<svg
   width="128"
   height="128"
   viewBox="0 0 33.866665 33.866665"
   version="1.1"
   id="svg1"
   xmlns="http://www.w3.org/2000/svg"
   xmlns:svg="http://www.w3.org/2000/svg">
  <defs
     id="defs1" />
  <path
     id="path33"
     style="baseline-shift:baseline;display:inline;overflow:visible;opacity:1;vector-effect:none;fill:#ffffff;fill-opacity:1;stroke:#000000;stroke-linecap:square;stroke-linejoin:round;stroke-dashoffset:0.45;stroke-opacity:1;paint-order:markers stroke fill;enable-background:accumulate;stop-color:#000000;stop-opacity:1"
     d="m 16.939534,2.9259195 c -1.192506,-0.00988 -2.396636,0.3369734 -3.332097,1.0934732 -0.935461,0.7564999 -1.56838,1.9473966 -1.568379,3.4318317 v 0.4506185 c -1.611098,0.511206 -3.181613,1.5585754 -4.4979166,3.4163291 -0.8385179,1.183434 -1.102586,2.753131 -1.2226643,4.504117 -0.1200784,1.750985 -0.039614,3.688779 0.1152384,5.509741 0.2792411,3.283694 0.8072418,6.200265 0.9084716,6.742224 0.066349,1.532891 1.4298791,2.689241 2.9662269,2.689241 h 13.250354 c 1.536232,0 2.897711,-1.156525 2.96416,-2.689241 0.101379,-0.541052 0.631237,-3.457822 0.910538,-6.742224 0.154852,-1.820962 0.235317,-3.758756 0.115239,-5.509741 C 27.428624,14.071303 27.164558,12.501606 26.32604,11.318172 25.009737,9.4604147 23.439222,8.413048 21.828124,7.9018429 V 7.4512244 c 0,-1.4542897 -0.635026,-2.6322213 -1.566313,-3.3904906 C 19.330523,3.3024645 18.13204,2.9358011 16.939534,2.9259195 Z m -0.01189,1.321883 c 0.924161,0.00766 1.841826,0.3038926 2.498039,0.8381917 0.656213,0.5342991 1.080037,1.2782321 1.080037,2.3652302 v 0.133842 c -1.211874,-0.20678 -2.412256,-0.206189 -3.571875,-0.206189 -1.159646,10e-8 -2.360342,-6.052e-4 -3.572391,0.206189 v -0.133842 c 0,-1.1270111 0.425931,-1.8772056 1.07797,-2.4045043 0.652039,-0.5272987 1.564059,-0.8065756 2.48822,-0.7989176 z m 0.0062,5.3066526 c 1.54712,0 2.952005,0.027171 4.185274,0.4066935 1.233268,0.3795234 2.33556,1.0676124 3.431832,2.6148274 0.377056,0.532153 0.720015,1.822074 0.827856,3.394625 0.107842,1.572551 0.03587,3.423285 -0.113171,5.175911 -0.02714,0.319089 -0.05693,0.634821 -0.08837,0.945162 H 8.6899084 C 8.6585037,21.781333 8.6286767,21.465601 8.6015417,21.146512 8.4525006,19.393886 8.3805287,17.543152 8.4883704,15.970601 8.596212,14.39805 8.9391712,13.108129 9.3162268,12.575976 10.412498,11.028764 11.514789,10.340672 12.748058,9.9611486 13.981327,9.5816247 15.386729,9.5544551 16.933849,9.5544551 Z m -3.263883,3.5429359 c -0.663303,0 -1.030142,0.47436 -1.261938,0.881083 -0.231795,0.406722 -0.368971,0.832841 -0.36897,1.278992 v 0.765845 c 0,0.223076 0.04741,0.473499 0.205155,0.687813 0.157745,0.214315 0.397858,0.331574 0.581877,0.376721 0.368037,0.09029 0.614878,0.03721 0.843876,0.03721 h 6.52725 c 0.228999,0 0.475839,0.05308 0.843876,-0.03721 0.184018,-0.04515 0.42413,-0.162407 0.581876,-0.376721 0.157746,-0.214313 0.205156,-0.464737 0.205156,-0.687813 v -0.765845 c 0,-0.446151 -0.139241,-0.87227 -0.371037,-1.278992 -0.231795,-0.406723 -0.596569,-0.881083 -1.259871,-0.881083 z m -4.8327797,10.31875 h 2.8329017 v 1.419551 c 0,0.218986 0.177372,0.39659 0.396358,0.396875 0.219793,8.59e-4 0.398428,-0.17708 0.398426,-0.396875 v -1.419551 h 12.564607 c -0.30062,2.471597 -0.660425,4.335652 -0.660425,4.335652 -0.01302,0.06761 -0.0196,0.136303 -0.01964,0.205155 0,0.313945 -0.283553,0.63097 -0.790649,0.63097 H 10.308414 c -0.5070931,0 -0.7927162,-0.317025 -0.7927162,-0.63097 -3.96e-5,-0.06885 -0.00661,-0.137545 -0.019637,-0.205155 0,0 -0.3588129,-1.864055 -0.6588744,-4.335652 z" />
</svg>
