<?xml version="1.0" encoding="UTF-8" standalone="no"?>
<!-- Created with Inkscape (http://www.inkscape.org/) -->

<svg
   width="288.33005"
   height="178.7372"
   viewBox="0 0 76.287321 47.290881"
   version="1.1"
   id="svg1"
   xmlns="http://www.w3.org/2000/svg"
   xmlns:svg="http://www.w3.org/2000/svg">
  <defs
     id="defs1" />
  <g
     id="g6"
     transform="translate(1.1616048e-4,2.4739637e-4)">
    <path
       id="rect2"
       style="fill:#ffffff;fill-opacity:1;stroke:none;stroke-width:1.6599;stroke-linecap:round;stroke-linejoin:round;stroke-dashoffset:0.45;stroke-opacity:1;paint-order:markers stroke fill"
       d="M 16.501719,0.014455 A 6.5621749,6.7940239 0 0 0 15.646474,0.13176049 L 9.92796,1.3161843 C 8.1876331,1.676547 6.5025319,2.2721921 4.9153463,3.0866187 4.3251833,3.3894469 3.4620618,4.033114 2.9681785,4.4844662 L 1.3904971,5.9267553 C 1.0922137,6.1185083 0.81846378,6.3554851 0.57762682,6.6311051 L -1.1566628e-4,7.2920466 3.7407411,5.8234025 C 5.7087376,4.8683115 7.8100218,4.2395782 9.9667173,3.9604672 L 14.486338,3.67573 A 40.30714,41.731236 0 0 1 14.81655,3.656093 V 31.90708 c 0,0.604358 0.371041,1.429586 0.914156,1.69137 0.81963,0.39506 1.626931,0.402268 2.41794,0.01757 0.541851,-0.263524 0.901237,-1.104582 0.901237,-1.70894 V 16.267726 14.777894 12.883436 3.656093 a 40.30714,41.731236 0 0 1 0.33073,0.019637 l 4.51962,0.2847372 c 2.156696,0.279111 4.257463,0.9078443 6.22546,1.8629353 L 33.866549,7.2920466 33.288807,6.6311051 C 33.047971,6.3554851 32.774737,6.1185083 32.476453,5.9267553 L 30.898255,4.4844662 C 30.404372,4.033114 29.541768,3.3894474 28.951604,3.0866187 27.364419,2.2721927 25.678799,1.6765469 23.938474,1.3161843 L 18.220477,0.13176049 A 6.5621749,6.7940239 0 0 0 16.501719,0.014455 Z" />
    <rect
       style="fill:#ffffff;fill-opacity:1;stroke:none;stroke-width:2.64584;stroke-linecap:round;stroke-linejoin:round;stroke-dashoffset:0.45;stroke-opacity:1;paint-order:markers stroke fill"
       id="rect7"
       width="33.866657"
       height="33.866665"
       x="42.420551"
       y="13.423972"
       rx="0" />
  </g>
</svg>
